<svg width="20" height="21" viewBox="0 0 20 21" fill="none" xmlns="http://www.w3.org/2000/svg">
<path d="M10 20.5C8.61667 20.5 7.31667 20.2375 6.1 19.7125C4.88333 19.1875 3.825 18.475 2.925 17.575C2.025 16.675 1.3125 15.6167 0.7875 14.4C0.2625 13.1833 0 11.8833 0 10.5C0 9.11667 0.2625 7.81667 0.7875 6.6C1.3125 5.38333 2.025 4.325 2.925 3.425C3.825 2.525 4.88333 1.8125 6.1 1.2875C7.31667 0.7625 8.61667 0.5 10 0.5C11.3833 0.5 12.6833 0.7625 13.9 1.2875C15.1167 1.8125 16.175 2.525 17.075 3.425C17.975 4.325 18.6875 5.38333 19.2125 6.6C19.7375 7.81667 20 9.11667 20 10.5C20 11.8833 19.7375 13.1833 19.2125 14.4C18.6875 15.6167 17.975 16.675 17.075 17.575C16.175 18.475 15.1167 19.1875 13.9 19.7125C12.6833 20.2375 11.3833 20.5 10 20.5ZM10 18.5C12.2333 18.5 14.125 17.725 15.675 16.175C17.225 14.625 18 12.7333 18 10.5C18 10.3833 17.9958 10.2625 17.9875 10.1375C17.9792 10.0125 17.975 9.90833 17.975 9.825C17.8917 10.3083 17.6667 10.7083 17.3 11.025C16.9333 11.3417 16.5 11.5 16 11.5H14C13.45 11.5 12.9792 11.3042 12.5875 10.9125C12.1958 10.5208 12 10.05 12 9.5V8.5H8V6.5C8 5.95 8.19583 5.47917 8.5875 5.0875C8.97917 4.69583 9.45 4.5 10 4.5H11C11 4.11667 11.1042 3.77917 11.3125 3.4875C11.5208 3.19583 11.775 2.95833 12.075 2.775C11.7417 2.69167 11.4042 2.625 11.0625 2.575C10.7208 2.525 10.3667 2.5 10 2.5C7.76667 2.5 5.875 3.275 4.325 4.825C2.775 6.375 2 8.26667 2 10.5H7C8.1 10.5 9.04167 10.8917 9.825 11.675C10.6083 12.4583 11 13.4 11 14.5V15.5H8V18.25C8.33333 18.3333 8.6625 18.3958 8.9875 18.4375C9.3125 18.4792 9.65 18.5 10 18.5Z" fill="white"/>
</svg>
