<svg width="21" height="19" viewBox="0 0 21 19" fill="none" xmlns="http://www.w3.org/2000/svg">
<path d="M2 8V14V2V8ZM12 17C12.2833 17 12.521 16.904 12.713 16.712C12.9043 16.5207 13 16.2833 13 16C13 15.7167 12.9043 15.4793 12.713 15.288C12.521 15.096 12.2833 15 12 15C11.7167 15 11.4793 15.096 11.288 15.288C11.096 15.4793 11 15.7167 11 16C11 16.2833 11.096 16.5207 11.288 16.712C11.4793 16.904 11.7167 17 12 17ZM18 7C18.2833 7 18.5207 6.904 18.712 6.712C18.904 6.52067 19 6.28333 19 6C19 5.71667 18.904 5.479 18.712 5.287C18.5207 5.09567 18.2833 5 18 5C17.7167 5 17.4793 5.09567 17.288 5.287C17.096 5.479 17 5.71667 17 6C17 6.28333 17.096 6.52067 17.288 6.712C17.4793 6.904 17.7167 7 18 7ZM4 7H9V5H4V7ZM4 11H9V9H4V11ZM2 16C1.45 16 0.979333 15.8043 0.588 15.413C0.196 15.021 0 14.55 0 14V2C0 1.45 0.196 0.979333 0.588 0.588C0.979333 0.196 1.45 0 2 0H18C18.55 0 19.021 0.196 19.413 0.588C19.8043 0.979333 20 1.45 20 2H2V14H7V16H2ZM12 19C11.1667 19 10.4583 18.7083 9.875 18.125C9.29167 17.5417 9 16.8333 9 16C9 15.35 9.18733 14.7667 9.562 14.25C9.93733 13.7333 10.4167 13.375 11 13.175V10H17V8.825C16.4167 8.625 15.9373 8.26667 15.562 7.75C15.1873 7.23333 15 6.65 15 6C15 5.16667 15.2917 4.45833 15.875 3.875C16.4583 3.29167 17.1667 3 18 3C18.8333 3 19.5417 3.29167 20.125 3.875C20.7083 4.45833 21 5.16667 21 6C21 6.65 20.8127 7.23333 20.438 7.75C20.0627 8.26667 19.5833 8.625 19 8.825V12H13V13.175C13.5833 13.375 14.0627 13.7333 14.438 14.25C14.8127 14.7667 15 15.35 15 16C15 16.8333 14.7083 17.5417 14.125 18.125C13.5417 18.7083 12.8333 19 12 19Z" fill="white"/>
</svg>
