<svg width="23" height="20" viewBox="0 0 23 20" fill="none" xmlns="http://www.w3.org/2000/svg">
<path d="M20 0H2.22222C0.988889 0 0 0.988889 0 2.22222V15.5556C0 16.7778 0.988889 17.7778 2.22222 17.7778H6.66667V20H15.5556V17.7778H20C21.2222 17.7778 22.2222 16.7778 22.2222 15.5556V2.22222C22.2222 0.988889 21.2222 0 20 0ZM20 15.5556H2.22222V2.22222H20V15.5556Z" fill="white"/>
<path d="M13.3332 5.83325H4.44434V7.49992H13.3332V5.83325Z" fill="white"/>
<path d="M16.111 7.49989H17.7777V5.83322H16.111V4.44434H14.4443V8.88878H16.111V7.49989Z" fill="white"/>
<path d="M17.7778 10.2778H8.88892V11.9445H17.7778V10.2778Z" fill="white"/>
<path d="M6.111 13.3334H7.77767V8.88892H6.111V10.2778H4.44434V11.9445H6.111V13.3334Z" fill="white"/>
</svg>
