<svg width="20" height="20" viewBox="0 0 20 20" fill="none" xmlns="http://www.w3.org/2000/svg">
<g clip-path="url(#clip0_359_1681)">
<path d="M15.8917 4.10841L14.7167 5.28341C15.9167 6.49175 16.6667 8.15841 16.6667 10.0001C16.6667 13.6834 13.6834 16.6667 10.0001 16.6667C6.31675 16.6667 3.33341 13.6834 3.33341 10.0001C3.33341 6.60008 5.87508 3.80008 9.16675 3.39175V5.07508C6.80008 5.47508 5.00008 7.52508 5.00008 10.0001C5.00008 12.7584 7.24175 15.0001 10.0001 15.0001C12.7584 15.0001 15.0001 12.7584 15.0001 10.0001C15.0001 8.61675 14.4417 7.36675 13.5334 6.46675L12.3584 7.64175C12.9584 8.25008 13.3334 9.08341 13.3334 10.0001C13.3334 11.8417 11.8417 13.3334 10.0001 13.3334C8.15841 13.3334 6.66675 11.8417 6.66675 10.0001C6.66675 8.45008 7.73341 7.15841 9.16675 6.78341V8.56675C8.66675 8.85841 8.33341 9.38341 8.33341 10.0001C8.33341 10.9167 9.08341 11.6667 10.0001 11.6667C10.9167 11.6667 11.6667 10.9167 11.6667 10.0001C11.6667 9.38341 11.3334 8.85008 10.8334 8.56675V1.66675H10.0001C5.40008 1.66675 1.66675 5.40008 1.66675 10.0001C1.66675 14.6001 5.40008 18.3334 10.0001 18.3334C14.6001 18.3334 18.3334 14.6001 18.3334 10.0001C18.3334 7.70008 17.4001 5.61675 15.8917 4.10841Z" fill="white"/>
</g>
<defs>
<clipPath id="clip0_359_1681">
<rect width="20" height="20" fill="white"/>
</clipPath>
</defs>
</svg>
