<svg width="20" height="20" viewBox="0 0 20 20" fill="none" xmlns="http://www.w3.org/2000/svg">
<g id="Miscellaneous services">
<g id="Group">
<g id="Group_2">
<path id="Vector" d="M11.8084 11.425L12.9751 9.40829C13.0501 9.28329 13.0168 9.12496 12.9084 9.03329L11.6751 8.06663C11.7001 7.88329 11.7168 7.69163 11.7168 7.49996C11.7168 7.30829 11.7001 7.11663 11.6751 6.92496L12.9084 5.95829C13.0168 5.86663 13.0501 5.70829 12.9751 5.58329L11.8084 3.56663C11.7334 3.44163 11.5834 3.39163 11.4501 3.44163L10.0001 4.02496C9.70008 3.79163 9.37508 3.59996 9.01675 3.44996L8.80008 1.90829C8.77508 1.77496 8.65008 1.66663 8.50842 1.66663H6.17508C6.03342 1.66663 5.90842 1.77496 5.88342 1.91663L5.66675 3.45829C5.31675 3.60829 4.98342 3.79996 4.68342 4.03329L3.23342 3.44996C3.10008 3.39996 2.95008 3.44996 2.87508 3.57496L1.70842 5.59163C1.63342 5.71663 1.66675 5.87496 1.77508 5.96663L3.00842 6.93329C2.98342 7.11663 2.96675 7.30829 2.96675 7.49996C2.96675 7.69163 2.98342 7.88329 3.00842 8.07496L1.77508 9.04163C1.66675 9.13329 1.63342 9.29163 1.70842 9.41663L2.87508 11.4333C2.95008 11.5583 3.10008 11.6083 3.23342 11.5583L4.68342 10.975C4.98342 11.2083 5.30842 11.4 5.66675 11.55L5.88342 13.0916C5.90842 13.225 6.03342 13.3333 6.17508 13.3333H8.50842C8.65008 13.3333 8.77508 13.225 8.80008 13.0833L9.01675 11.5416C9.36675 11.3916 9.70008 11.2 10.0001 10.9666L11.4501 11.55C11.5834 11.6 11.7334 11.55 11.8084 11.425ZM7.34175 9.16663C6.42508 9.16663 5.67508 8.41663 5.67508 7.49996C5.67508 6.58329 6.42508 5.83329 7.34175 5.83329C8.25842 5.83329 9.00842 6.58329 9.00842 7.49996C9.00842 8.41663 8.25842 9.16663 7.34175 9.16663Z" fill="#666666"/>
<path id="Vector_2" d="M18.2669 15.5583L17.4669 14.9416C17.4835 14.8249 17.5002 14.6999 17.5002 14.5749C17.5002 14.4499 17.4919 14.3249 17.4669 14.2083L18.2585 13.5916C18.3252 13.5333 18.3502 13.4333 18.3002 13.3499L17.5502 12.0583C17.5085 11.9749 17.4085 11.9499 17.3169 11.9749L16.3919 12.3499C16.2002 12.1999 15.9919 12.0749 15.7585 11.9833L15.6169 10.9999C15.6085 10.8999 15.5252 10.8333 15.4419 10.8333H13.9502C13.8585 10.8333 13.7752 10.8999 13.7669 10.9916L13.6252 11.9749C13.4002 12.0749 13.1835 12.1916 12.9919 12.3416L12.0669 11.9666C11.9835 11.9333 11.8835 11.9666 11.8335 12.0499L11.0835 13.3416C11.0419 13.4249 11.0502 13.5249 11.1252 13.5833L11.9169 14.1999C11.9002 14.3166 11.8919 14.4416 11.8919 14.5666C11.8919 14.6916 11.9002 14.8166 11.9169 14.9333L11.1252 15.5499C11.0585 15.6083 11.0335 15.7083 11.0835 15.7916L11.8335 17.0833C11.8752 17.1666 11.9752 17.1916 12.0669 17.1666L12.9919 16.7916C13.1835 16.9416 13.3919 17.0666 13.6252 17.1583L13.7669 18.1416C13.7835 18.2333 13.8585 18.2999 13.9502 18.2999H15.4419C15.5335 18.2999 15.6169 18.2333 15.6252 18.1416L15.7669 17.1583C15.9919 17.0583 16.2085 16.9416 16.3919 16.7916L17.3252 17.1666C17.4085 17.1999 17.5085 17.1666 17.5585 17.0833L18.3085 15.7916C18.3585 15.7166 18.3335 15.6166 18.2669 15.5583ZM14.6919 15.6916C14.0752 15.6916 13.5669 15.1916 13.5669 14.5666C13.5669 13.9416 14.0669 13.4416 14.6919 13.4416C15.3169 13.4416 15.8169 13.9416 15.8169 14.5666C15.8169 15.1916 15.3085 15.6916 14.6919 15.6916Z" fill="#666666"/>
</g>
</g>
</g>
</svg>
