<svg width="26" height="26" viewBox="0 0 26 26" fill="none" xmlns="http://www.w3.org/2000/svg">
<g id="Rocket launch">
<g id="Group">
<g id="Group_2">
<path id="Vector" d="M6.50008 16.2499C5.60091 16.2499 4.78841 16.6183 4.20341 17.2033C2.92508 18.4816 2.16675 23.8333 2.16675 23.8333C2.16675 23.8333 7.51841 23.0749 8.79675 21.7966C9.38175 21.2116 9.75008 20.3991 9.75008 19.4999C9.75008 17.7016 8.29841 16.2499 6.50008 16.2499ZM7.26925 20.2691C6.96591 20.5724 4.91841 21.0924 4.91841 21.0924C4.91841 21.0924 5.42758 19.0558 5.74175 18.7416C5.92591 18.5358 6.19675 18.4166 6.50008 18.4166C7.09591 18.4166 7.58341 18.9041 7.58341 19.4999C7.58341 19.8033 7.46425 20.0741 7.26925 20.2691ZM18.8717 14.7874C25.7617 7.89745 23.4651 2.53495 23.4651 2.53495C23.4651 2.53495 18.1026 0.238281 11.2126 7.12828L8.51508 6.58661C7.81091 6.44578 7.07425 6.67328 6.55425 7.18245L2.16675 11.5808L7.58341 13.8991L12.1009 18.4166L14.4192 23.8333L18.8067 19.4458C19.3159 18.9366 19.5434 18.1999 19.4026 17.4849L18.8717 14.7874ZM8.02758 11.7324L5.95841 10.8441L8.09258 8.70995L9.65258 9.02411C9.03508 9.92328 8.48258 10.8658 8.02758 11.7324ZM15.1559 20.0416L14.2676 17.9724C15.1342 17.5174 16.0767 16.9649 16.9651 16.3474L17.2792 17.9074L15.1559 20.0416ZM17.3334 13.2599C15.9034 14.6899 13.6717 15.8599 12.9567 16.2174L9.78258 13.0433C10.1292 12.3391 11.2992 10.1074 12.7401 8.66661C17.8101 3.59661 21.6559 4.34411 21.6559 4.34411C21.6559 4.34411 22.4034 8.18995 17.3334 13.2599ZM16.2501 11.9166C17.4417 11.9166 18.4167 10.9416 18.4167 9.74995C18.4167 8.55828 17.4417 7.58328 16.2501 7.58328C15.0584 7.58328 14.0834 8.55828 14.0834 9.74995C14.0834 10.9416 15.0584 11.9166 16.2501 11.9166Z" fill="#666666"/>
</g>
</g>
</g>
</svg>
