<svg xmlns="http://www.w3.org/2000/svg" xmlns:xlink="http://www.w3.org/1999/xlink" width="500" zoomAndPan="magnify" viewBox="0 0 375 374.999991" height="500" preserveAspectRatio="xMidYMid meet" version="1.0"><defs><clipPath id="86184e26e7"><path d="M 37 37 L 336.058594 37 L 336.058594 337 L 37 337 Z M 37 37 " clip-rule="nonzero"/></clipPath><clipPath id="86c9d4d519"><path d="M 54.75 37.5 L 318.808594 37.5 C 323.386719 37.5 327.773438 39.316406 331.007812 42.550781 C 334.242188 45.789062 336.058594 50.175781 336.058594 54.75 L 336.058594 319.34375 C 336.058594 323.917969 334.242188 328.304688 331.007812 331.539062 C 327.773438 334.777344 323.386719 336.59375 318.808594 336.59375 L 54.75 336.59375 C 50.175781 336.59375 45.789062 334.777344 42.550781 331.539062 C 39.316406 328.304688 37.5 323.917969 37.5 319.34375 L 37.5 54.75 C 37.5 50.175781 39.316406 45.789062 42.550781 42.550781 C 45.789062 39.316406 50.175781 37.5 54.75 37.5 Z M 54.75 37.5 " clip-rule="nonzero"/></clipPath><clipPath id="c0525b0dfe"><path d="M 151 123 L 324.621094 123 L 324.621094 310 L 151 310 Z M 151 123 " clip-rule="nonzero"/></clipPath><clipPath id="d5bd809f20"><path d="M 50.121094 173 L 199 173 L 199 310 L 50.121094 310 Z M 50.121094 173 " clip-rule="nonzero"/></clipPath></defs><g clip-path="url(#86184e26e7)"><g clip-path="url(#86c9d4d519)"><path fill="#0a131f" d="M 37.5 37.5 L 336.058594 37.5 L 336.058594 336.058594 L 37.5 336.058594 Z M 37.5 37.5 " fill-opacity="1" fill-rule="nonzero"/></g></g><path fill="#169fcc" d="M 136.675781 274.484375 L 143.234375 266.019531 L 191.753906 266.019531 L 217.046875 298.332031 L 212.550781 309.296875 L 149.976562 309.296875 L 151.476562 298.332031 Z M 136.675781 274.484375 " fill-opacity="1" fill-rule="nonzero"/><g clip-path="url(#c0525b0dfe)"><path fill="#14b59a" d="M 151.511719 164.300781 L 174.941406 123.824219 L 202.246094 123.824219 L 324.621094 265.96875 L 315.132812 309.296875 L 262.660156 309.296875 L 265.949219 297.132812 Z M 151.511719 164.300781 " fill-opacity="1" fill-rule="nonzero"/></g><path fill="#1bc263" d="M 179.953125 116.132812 L 191.171875 95.386719 L 224.828125 68.179688 L 282.496094 113.390625 L 275.015625 121.023438 L 285.054688 134.921875 L 285.054688 149.796875 L 256.320312 173.28125 L 208.097656 116.132812 Z M 179.953125 116.132812 " fill-opacity="1" fill-rule="nonzero"/><g clip-path="url(#d5bd809f20)"><path fill="#16bdcc" d="M 90.832031 206.53125 L 106.078125 206.53125 L 145.824219 173.28125 L 198.5 234.488281 L 183.644531 256.78125 L 135.019531 256.78125 L 101.445312 299.472656 L 93.726562 309.296875 L 50.121094 309.296875 L 50.121094 256.96875 Z M 90.832031 206.53125 " fill-opacity="1" fill-rule="nonzero"/></g></svg>