<svg width="70" height="70" viewBox="0 0 70 70" fill="none" xmlns="http://www.w3.org/2000/svg">
<g id="File present" clip-path="url(#clip0_209_2881)">
<g id="Group">
<path id="Vector" d="M40.8332 5.83337H17.4998C14.2915 5.83337 11.6665 8.45837 11.6665 11.6667V58.3334C11.6665 61.5417 14.2915 64.1667 17.4998 64.1667H52.4998C55.7082 64.1667 58.3332 61.5417 58.3332 58.3334V23.3334L40.8332 5.83337ZM52.4998 58.3334H17.4998V11.6667H40.8332V23.3334H52.4998V58.3334ZM34.9998 49.5834C31.7915 49.5834 29.1665 46.9584 29.1665 43.75V27.7084C29.1665 26.8917 29.8082 26.25 30.6248 26.25C31.4415 26.25 32.0832 26.8917 32.0832 27.7084V43.75H37.9165V27.7084C37.9165 23.6834 34.6498 20.4167 30.6248 20.4167C26.5998 20.4167 23.3332 23.6834 23.3332 27.7084V43.75C23.3332 50.1959 28.554 55.4167 34.9998 55.4167C41.4457 55.4167 46.6665 50.1959 46.6665 43.75V32.0834H40.8332V43.75C40.8332 46.9584 38.2082 49.5834 34.9998 49.5834Z" fill="#666666"/>
</g>
</g>
<defs>
<clipPath id="clip0_209_2881">
<rect width="70" height="70" fill="white"/>
</clipPath>
</defs>
</svg>
