<svg width="64" height="64" viewBox="0 0 64 64" fill="none" xmlns="http://www.w3.org/2000/svg">
<g id="konghq_logo_icon_169371 1">
<path id="Vector" fill-rule="evenodd" clip-rule="evenodd" d="M20.986 50.552H32.648L38.703 58.092L37.663 60.66H22.596L22.966 58.092L19.414 52.544L20.986 50.552ZM29.224 16.787L35.554 16.777L64 50.428L61.8 60.658H49.61L50.37 57.775L23.79 26.323L29.224 16.787ZM40.518 3.34003L53.68 13.758L51.995 15.508L54.277 18.708V22.13L47.714 27.516L36.68 14.39H30.254L32.841 9.61603L40.518 3.34003ZM13.058 36.192L22.314 28.257L34.6 42.84L31.1 48.182H19.782L11.945 58.326L10.145 60.659H0V48.213L9.465 36.193L13.058 36.192Z" fill="#666666"/>
</g>
</svg>
