<svg width="70" height="70" viewBox="0 0 70 70" fill="none" xmlns="http://www.w3.org/2000/svg">
<g id="Admin panel settings" clip-path="url(#clip0_209_2870)">
<g id="Group">
<g id="Group_2">
<path id="Vector" d="M49.5836 48.475C51.3877 48.475 52.8502 47.0124 52.8502 45.2083C52.8502 43.4042 51.3877 41.9417 49.5836 41.9417C47.7794 41.9417 46.3169 43.4042 46.3169 45.2083C46.3169 47.0124 47.7794 48.475 49.5836 48.475Z" fill="#666666"/>
<path id="Vector_2" fill-rule="evenodd" clip-rule="evenodd" d="M49.5831 51.0416C47.454 51.0416 43.1956 52.0916 43.0498 54.1916C44.5081 56.2625 46.8998 57.6041 49.5831 57.6041C52.2665 57.6041 54.6581 56.2625 56.1165 54.1916C55.9706 52.0916 51.7123 51.0416 49.5831 51.0416Z" fill="#666666"/>
<path id="Vector_3" fill-rule="evenodd" clip-rule="evenodd" d="M52.5 32.3458V18.2875L30.625 8.75L8.75 18.2875V32.6083C8.75 45.85 18.0833 58.2458 30.625 61.25C32.2292 60.8708 33.775 60.3167 35.2917 59.6458C38.4417 64.1375 43.6625 67.0833 49.5833 67.0833C59.2375 67.0833 67.0833 59.2375 67.0833 49.5833C67.0833 40.9208 60.7833 33.7458 52.5 32.3458ZM32.0833 49.5833C32.0833 51.2167 32.3167 52.8208 32.7542 54.3083C32.0542 54.6292 31.3542 54.95 30.625 55.1833C21.3792 52.2667 14.5833 42.8167 14.5833 32.6083V22.1083L30.625 15.1083L46.6667 22.1083V32.3458C38.3833 33.7458 32.0833 40.9208 32.0833 49.5833ZM49.5833 61.25C43.1375 61.25 37.9167 56.0292 37.9167 49.5833C37.9167 43.1375 43.1375 37.9167 49.5833 37.9167C56.0292 37.9167 61.25 43.1375 61.25 49.5833C61.25 56.0292 56.0292 61.25 49.5833 61.25Z" fill="#666666"/>
</g>
</g>
</g>
<defs>
<clipPath id="clip0_209_2870">
<rect width="70" height="70" fill="white"/>
</clipPath>
</defs>
</svg>
