<svg width="70" height="57" viewBox="0 0 70 57" fill="none" xmlns="http://www.w3.org/2000/svg">
<path id="Vector" d="M31.5795 34.9917L49.6364 17.1L45.1023 12.5875L31.5795 26.0458L24.8182 19.3167L20.3636 23.75L31.5795 34.9917ZM0 57V50.6667H70V57H0ZM9.54545 47.5C7.79545 47.5 6.29788 46.8804 5.05273 45.6412C3.80545 44.3998 3.18182 42.9083 3.18182 41.1667V6.33333C3.18182 4.59167 3.80545 3.10017 5.05273 1.85883C6.29788 0.619611 7.79545 0 9.54545 0H60.4545C62.2045 0 63.7032 0.619611 64.9505 1.85883C66.1956 3.10017 66.8182 4.59167 66.8182 6.33333V41.1667C66.8182 42.9083 66.1956 44.3998 64.9505 45.6412C63.7032 46.8804 62.2045 47.5 60.4545 47.5H9.54545ZM9.54545 41.1667H60.4545V6.33333H9.54545V41.1667Z" fill="#666666"/>
</svg>
