<svg width="70" height="70" viewBox="0 0 70 70" fill="none" xmlns="http://www.w3.org/2000/svg">
<g id="Folder copy" clip-path="url(#clip0_209_2747)">
<g id="Group">
<path id="Vector" d="M8.74984 55.4167H58.3332V61.25H8.74984C5.5415 61.25 2.9165 58.625 2.9165 55.4167V17.5H8.74984V55.4167ZM67.0832 17.5V43.75C67.0832 46.9583 64.4582 49.5833 61.2498 49.5833H20.4165C17.2082 49.5833 14.5832 46.9583 14.5832 43.75L14.6123 11.6667C14.6123 8.45833 17.2082 5.83333 20.4165 5.83333H34.9998L40.8332 11.6667H61.2498C64.4582 11.6667 67.0832 14.2917 67.0832 17.5ZM20.4165 43.75H61.2498V17.5H38.4123L32.579 11.6667H20.4165V43.75Z" fill="#666666"/>
</g>
</g>
<defs>
<clipPath id="clip0_209_2747">
<rect width="70" height="70" fill="white"/>
</clipPath>
</defs>
</svg>
